<svg width="32" height="32" viewBox="0 0 32 32" fill="none" xmlns="http://www.w3.org/2000/svg">
  <defs>
    <linearGradient id="grad1" x1="0%" y1="0%" x2="100%" y2="100%">
      <stop offset="0%" style="stop-color:#1E293B;stop-opacity:1" />
      <stop offset="100%" style="stop-color:#334155;stop-opacity:1" />
    </linearGradient>
    <linearGradient id="grad2" x1="0%" y1="0%" x2="100%" y2="100%">
      <stop offset="0%" style="stop-color:#3B82F6;stop-opacity:1" />
      <stop offset="100%" style="stop-color:#8B5CF6;stop-opacity:1" />
    </linearGradient>
    <linearGradient id="grad3" x1="0%" y1="0%" x2="100%" y2="100%">
      <stop offset="0%" style="stop-color:#10B981;stop-opacity:1" />
      <stop offset="100%" style="stop-color:#06B6D4;stop-opacity:1" />
    </linearGradient>
  </defs>
  
  <!-- Background -->
  <rect width="32" height="32" rx="6" fill="url(#grad1)"/>
  
  <!-- Circuit board pattern -->
  <path d="M4 8H12M20 8H28M4 16H8M12 16H20M24 16H28M4 24H12M20 24H28" 
        stroke="url(#grad2)" stroke-width="1.5" stroke-linecap="round"/>
  
  <!-- Vertical connections -->
  <path d="M8 4V12M16 4V12M24 4V12M8 20V28M16 20V28M24 20V28" 
        stroke="url(#grad2)" stroke-width="1.5" stroke-linecap="round"/>
  
  <!-- Connection nodes -->
  <circle cx="8" cy="8" r="2" fill="url(#grad3)"/>
  <circle cx="16" cy="8" r="2" fill="url(#grad3)"/>
  <circle cx="24" cy="8" r="2" fill="url(#grad3)"/>
  <circle cx="8" cy="16" r="2" fill="url(#grad3)"/>
  <circle cx="16" cy="16" r="2" fill="url(#grad3)"/>
  <circle cx="24" cy="16" r="2" fill="url(#grad3)"/>
  <circle cx="8" cy="24" r="2" fill="url(#grad3)"/>
  <circle cx="16" cy="24" r="2" fill="url(#grad3)"/>
  <circle cx="24" cy="24" r="2" fill="url(#grad3)"/>
  
  <!-- Central processor element -->
  <rect x="12" y="12" width="8" height="8" rx="2" fill="url(#grad2)" opacity="0.8"/>
  <circle cx="16" cy="16" r="1.5" fill="white"/>
  
  <!-- Data flow lines -->
  <path d="M12 16L8 16" stroke="white" stroke-width="1" opacity="0.6"/>
  <path d="M20 16L24 16" stroke="white" stroke-width="1" opacity="0.6"/>
  <path d="M16 12L16 8" stroke="white" stroke-width="1" opacity="0.6"/>
  <path d="M16 20L16 24" stroke="white" stroke-width="1" opacity="0.6"/>
</svg>
