<svg width="32" height="32" viewBox="0 0 32 32" fill="none" xmlns="http://www.w3.org/2000/svg">
  <defs>
    <linearGradient id="grad1" x1="0%" y1="0%" x2="100%" y2="100%">
      <stop offset="0%" style="stop-color:#3B82F6;stop-opacity:1" />
      <stop offset="100%" style="stop-color:#8B5CF6;stop-opacity:1" />
    </linearGradient>
    <linearGradient id="grad2" x1="0%" y1="0%" x2="100%" y2="100%">
      <stop offset="0%" style="stop-color:#10B981;stop-opacity:1" />
      <stop offset="100%" style="stop-color:#3B82F6;stop-opacity:1" />
    </linearGradient>
  </defs>
  
  <!-- Background circle with gradient -->
  <circle cx="16" cy="16" r="15" fill="url(#grad1)" stroke="url(#grad2)" stroke-width="2"/>
  
  <!-- Code brackets representing backend development -->
  <path d="M10 8L6 16L10 24" stroke="white" stroke-width="2" stroke-linecap="round" stroke-linejoin="round"/>
  <path d="M22 8L26 16L22 24" stroke="white" stroke-width="2" stroke-linecap="round" stroke-linejoin="round"/>
  
  <!-- AI/Neural network nodes -->
  <circle cx="12" cy="12" r="1.5" fill="white" opacity="0.9"/>
  <circle cx="20" cy="12" r="1.5" fill="white" opacity="0.9"/>
  <circle cx="16" cy="16" r="1.5" fill="white" opacity="0.9"/>
  <circle cx="12" cy="20" r="1.5" fill="white" opacity="0.9"/>
  <circle cx="20" cy="20" r="1.5" fill="white" opacity="0.9"/>
  
  <!-- Connection lines -->
  <path d="M12 12L16 16L20 12" stroke="white" stroke-width="1" opacity="0.7"/>
  <path d="M12 20L16 16L20 20" stroke="white" stroke-width="1" opacity="0.7"/>
  <path d="M12 12L12 20" stroke="white" stroke-width="1" opacity="0.5"/>
  <path d="M20 12L20 20" stroke="white" stroke-width="1" opacity="0.5"/>
  
  <!-- Central highlight -->
  <circle cx="16" cy="16" r="3" fill="none" stroke="white" stroke-width="1" opacity="0.3"/>
</svg>
